<?xml version="1.0" encoding="utf-8"?>
<!-- Generator: Adobe Illustrator 24.0.1, SVG Export Plug-In . SVG Version: 6.00 Build 0)  -->
<svg version="1.1" id="Layer_1" xmlns="http://www.w3.org/2000/svg" xmlns:xlink="http://www.w3.org/1999/xlink" x="0px" y="0px"
	 viewBox="0 0 152.21 132.9" style="enable-background:new 0 0 152.21 132.9;" xml:space="preserve">
<path d="M139.82,3.89l7.46,11.74L137.12,4.92l-18.95,6.27l-16.8-7.44L64.6,9.59L46.94,22.54l31.71,3.42L66.18,46.53l4.79-18.23
	l-57.68-6.24l33.6,29.86L26.11,37.84L7.4,51.58L0,73.66l45.26,55.31l14.81,3.93l43.08-58.54l19.14-2.98l9.2,5.36l7.24-20.72
	l0.2-11.04l-5.87,6.82l-2.35-7.79l-2.88,11.36l-2.31-0.14l-2.56-6.05l-4.79,5.61l-2.44-0.14l-2.47-5.86l-4.28,5.45l-1.59-0.09
	l-2.92-6.91l-4.11,6.48l-0.88-0.05l-4.52-7.69l-1.03,1.47l2.71-4.69l2.59,4.2l5.33-7.66l1.79-0.36l3,7.11l5.91-8.92l2.47,10.17
	l5.08-11.69l1.08-0.22l2.89,12.18l4.71-13.73l0.45-0.09l3.91,9.99l4.29-11.65l3.03-0.61l4.29-10.58l0.76-1.86l4-19.03L139.82,3.89z
	 M103.1,21.11l-17.92,0.43l21.42-9.04L103.1,21.11z"/>
</svg>
