<?xml version="1.0" encoding="utf-8"?>
<!-- Generator: Adobe Illustrator 24.0.1, SVG Export Plug-In . SVG Version: 6.00 Build 0)  -->
<svg version="1.1" id="Layer_1" xmlns="http://www.w3.org/2000/svg" xmlns:xlink="http://www.w3.org/1999/xlink" x="0px" y="0px"
	 viewBox="0 0 152.92 147.38" style="enable-background:new 0 0 152.92 147.38;" xml:space="preserve">
<g>
	<path d="M151.36,49.96c0,0-2.57,3.9-6.59,7.94l-1.64-2.25l-4.36-1.28l2.24,6.91c0,0,0,0-0.01,0.01c-2.49,2.01-5.29,3.75-8.24,4.71
		c-10.19,3.3-21.03-6.98-21.03-6.98s4.11-18.24,15.21-16.82c3.91,0.49,7.11,1,9.64,1.46c0,0,0,0,0,0l1.37,4.25l4.1,2.07l0.07-5.18
		c0.96,0.22,1.43,0.35,1.43,0.35s5.49-10.1,2.01-20.86c-3.48-10.77-3.48-10.77-3.48-10.77s8.12-2.01,3.13-13.53l-37.97,12.28
		c0,0-9.65-16.28-35.15-8.03c-6.78,2.19-13.65,5.22-20.31,9.07l5.17,6.99l-4.1,29.13l-1.69-0.91l3.54-25.2L44.57,9.66
		c-2.65-3.58-6.69-5.89-11.13-6.35l0,0c-8.26-0.85-15.78,4.8-17.25,12.97l-1.12,6.2c-1.16,6.41,1.72,12.83,7.18,16.25c0,0,0,0,0,0
		c-5.77,7.3-10.63,15.67-14.13,25.03c-11.77,31.35-7.27,76.2-7.27,76.2s13.65,20.62,56.33-6.95c42.66-27.58,42.66-27.58,42.66-27.58
		s6.02-20.09,24.89-25.58c18.89-5.49,28.32-5.4,28.19-13.51C152.8,58.25,151.36,49.96,151.36,49.96z M92.92,34.04
		c-4.24,1.37-8.68-0.64-9.92-4.48c-1.24-3.84,1.17-8.07,5.42-9.44c4.23-1.37,8.68,0.64,9.92,4.48
		C99.58,28.44,97.15,32.67,92.92,34.04z"/>
	<path d="M89.37,23.06c-2.46,0.8-3.85,3.24-3.14,5.45c0.72,2.22,3.28,3.38,5.74,2.58c2.44-0.79,3.84-3.23,3.12-5.45
		C94.37,23.43,91.82,22.27,89.37,23.06z"/>
	<path d="M10.06,45.92l4.92,3.01c1.35-2.38,2.81-4.67,4.35-6.85c-4.96-3.51-7.93-10.16-8.13-15.78c-0.2-5.62,3.65-15.55,3.65-15.55
		C9.16,11.63,3.98,16.73,3.12,23.25l-0.8,6.02C1.45,35.83,4.58,42.56,10.06,45.92z"/>
</g>
</svg>
