<?xml version="1.0" encoding="utf-8"?>
<!-- Generator: Adobe Illustrator 24.0.1, SVG Export Plug-In . SVG Version: 6.00 Build 0)  -->
<svg version="1.1" id="Layer_1" xmlns="http://www.w3.org/2000/svg" xmlns:xlink="http://www.w3.org/1999/xlink" x="0px" y="0px"
	 viewBox="0 0 151.16 153.11" style="enable-background:new 0 0 151.16 153.11;" xml:space="preserve">
<path d="M0.07,116.52c-1.71,27.82,29.38,51.28,56.05,24.19l0.01-0.02c-0.01,0,0.04,0.02,0.13,0.15c6.44-8.24,9.17-20.93,9.01-32.6
	c9.43,7.73,9.49,22.28-3.12,31.49l0.23,0.46c13.19-5.21,19.84-27.79,2.77-37.59c-0.02-1.3-0.04,0.33-0.14-5.38
	c4.68,4.86,15.48,6,21.6,0c-0.05,1.4,0.05-0.1-0.17,6.25c-12.13,7.78-12.07,29.38,4.31,36.71l0.22-0.46
	c-8-4.73-14.9-20.58-4.61-30.16c0.36,9.31,1.49,21.77,8.99,31.25v0.01l0.01,0.01c0.01-0.01,0.02-0.02,0.13-0.15
	c54.33,49.31,86.05-64.2,12.92-63.07c0.02,0-0.05,0.03-0.1,0.21c8.7,4.8,16.9,13.8,14.87,27.4c0.01-0.01-0.02,0.02-0.08,0.02
	c0,0,0.03,0.01,0.07,0.04l-0.01,0.04c0.01,0,0,0,0.03-0.03c5.06,3.93-11.89,24.39,4.99,25.03c0.35-0.5,0.54-0.53,1.65-2.47
	c-2.66,4.08,0.29-63.1,13.94-15.08c3.11,20.14-18.26,46.08-42.11,19.95c-1.05-1.76-1.62-1.75-4.22-7.58
	c20.55-2.75,31.12-29.88,2.32-39.67c8.57-1.2,1.03-30.28-1.89-12.44c-1.1,2.89-1.11,0.2-5.97,3.05c0.06,0.52-0.28,0.38,0.33,2.14
	l0.28-0.12c-0.07-0.43,0.03-0.86,0.17-1.22c0.56-1.4,2.05,2.79,7.28-1.19c1.76-6.42,2.87,14.98-10.05,6.49V53.48
	c9.75-1.24,12.75-4.4,0-6.09c-0.25-4.79,0.82-4.2-1.44-10.45C101.46,22.81,77.37,2.09,75.81,0c-5.62,5.56-24.37,24.24-12.66,36.93
	c-1.01,1.26-1.67,6.8-1.44,10.45c-9.76,1.24-12.74,4.39,0,6.09c-2.1,7.37,6.84,38.95-10.35,28.94c-1.69-0.63-2.9-9.4-0.82-6.56
	c0,0,0,0,0-0.01c1.67,1.58,0.36,1.99,7.28,1.22c0.14,0.36,0.24,0.8,0.17,1.22l0.28,0.12c0.09-0.33,0.39-0.5,0.33-2.14
	c-3.19-3.25-4.25,3.05-7.33-8.76c-5.2-0.17-7.89,13.58,0.15,18.52c-18,4.42-24.25,35.7,3.25,37.93c-1.05,2.18-1,3.29-4.71,8.76
	c-22.79,30.55-61.9-10.83-32.16-37.11c1.14,0.62,6.91,16.83,3.99,32.24c0.23,0.32,0.41,0.9,1.65,2.47
	c15.08,0.7,1.88-15.43,4.99-25.03c0.01,0.01,0,0,0.03,0.03l-0.01-0.04c0.04-0.03,0.07-0.04,0.07-0.04c-0.03,0,0,0.01-0.08-0.02
	c-1.85-9.75,3.84-22.12,14.87-27.4c-0.02-0.07,0.01-0.04-0.1-0.21C25.15,74.45,1.58,88.64,0.07,116.52z M112.11,115.5
	c-2,4.7-8.53,5.09-15.28,8.16c-1.69-5.67-1.99-3.29-3.93-17.53c7.87-3.22,10.72,10.04,19.26,9.26
	C112.14,115.43,112.13,115.46,112.11,115.5z M89.8,90.29c6.1,0.26,29.97,7.06,20.82,20.07c0,0.02-0.01-0.03-0.03,0
	c-4.09-4.21-9.31-11.66-18.28-9.29c-0.78-2.32,0.66-3.08-2.77-9.39C89.65,91.22,89.74,90.76,89.8,90.29z M40.33,104.19
	c3.17-8.08,10.32-12.46,21.55-13.53c0.05,0.34,0.12,0.67,0.2,1.02c-0.17,0.6-1.54,0.62-2.74,9.15c-7.01-0.32-9.96,1.63-16.81,9.53
	c-0.01-0.03-0.03,0.02-0.03,0c0.02,0.04-0.16-0.05-0.31-0.16C41.3,108.73,40.57,107.93,40.33,104.19z M54.65,122.53
	c0.93-0.74-6.88,1.51-13.68-7.13c6.7,2.42,7.75-9.66,17.77-9.45c-0.6,1.05,1.22,0.7-3.57,16.66L54.65,122.53z"/>
</svg>
