<?xml version="1.0" encoding="utf-8"?>
<!-- Generator: Adobe Illustrator 24.0.1, SVG Export Plug-In . SVG Version: 6.00 Build 0)  -->
<svg version="1.1" id="Layer_1" xmlns="http://www.w3.org/2000/svg" xmlns:xlink="http://www.w3.org/1999/xlink" x="0px" y="0px"
	 viewBox="0 0 134.55 153.16" style="enable-background:new 0 0 134.55 153.16;" xml:space="preserve">
<g>
	<path d="M24.15,4.12c0,13.94-10.82,25.23-24.15,25.23c13.34,0,24.15,11.3,24.15,25.23c0-13.93,10.82-25.23,24.15-25.23
		C34.97,29.36,24.15,18.06,24.15,4.12z"/>
	<path d="M34.81,83.81c0,7.57-5.88,13.71-13.12,13.71c7.25,0,13.12,6.14,13.12,13.71c0-7.57,5.88-13.71,13.12-13.71
		C40.69,97.52,34.81,91.38,34.81,83.81z"/>
	<path d="M110.63,91.92c0,13.81-10.71,25-23.93,25c13.21,0,23.93,11.19,23.93,25c0-13.8,10.71-25,23.93-25
		C121.34,116.91,110.63,105.73,110.63,91.92z"/>
	<polygon points="84.96,64.72 105.25,36.59 77.92,36.59 94.9,13.03 85.51,0 47.31,52.97 74.65,52.97 54.36,81.11 77.94,81.11 
		34.81,153.16 108.55,64.72 	"/>
</g>
</svg>
