<?xml version="1.0" encoding="utf-8"?>
<!-- Generator: Adobe Illustrator 24.0.1, SVG Export Plug-In . SVG Version: 6.00 Build 0)  -->
<svg version="1.1" id="Layer_1" xmlns="http://www.w3.org/2000/svg" xmlns:xlink="http://www.w3.org/1999/xlink" x="0px" y="0px"
	 viewBox="0 0 149.26 158.34" style="enable-background:new 0 0 149.26 158.34;" xml:space="preserve">
<g>
	<polygon points="41.11,112.57 63.92,80.06 54.2,82.48 111.83,0 49.89,83.56 48.85,83.82 37.66,111.85 	"/>
	<path d="M73.69,120.18l22.75-1.64l-22.48-13.37l-26.08,14.89l2.27,12.13l-6.11-17.07l-15.22-3.17c1.63-0.23,3.26-0.45,4.91-0.63
		l13.32-29.5l-4.73-12.87l-9.34,17.59L3.4,69.38l14.89,30.1L0,116.02l35.71,8.47l14.18,33.84l13.34-20.73l37.13,8.29L73.69,120.18z"
		/>
	<polygon points="48.85,83.82 69.56,31.94 47.05,81.82 48.75,83.85 	"/>
	<polygon points="73.88,102.67 73.69,105.01 73.96,105.17 127.02,74.89 	"/>
	<path d="M68.54,78.9l-17.01,23.84c-0.62,0.92-0.48,2.07,0.3,2.74c0.11,0.09,0.22,0.17,0.34,0.23c0.76,0.4,1.72,0.26,2.43-0.41
		l20.73-20.63l5.48-5.45c0.61-0.61,1.22-1.22,1.81-1.83c3.31-3.37,6.5-6.87,9.53-10.45l31.11-36.67c0.68,0.8,1.32,1.64,1.93,2.5
		l1.76,2.51c0.44,0.63,1.13,1.01,1.88,1.05c0.77,0.04,1.49-0.27,2-0.86l4.9-5.78l0.01,0c0.49-0.59,0.68-1.36,0.52-2.11
		c-0.16-0.75-0.65-1.37-1.34-1.7l-2.78-1.33c-1.17-0.56-2.32-1.2-3.47-1.92c3.86-3.75,6.71-8.36,9.42-12.91
		c1.28,0.26,2.37-0.01,3.04-0.81c1-1.17,0.72-3.03-0.72-4.84l-0.01,0.01c-0.18-0.24-0.4-0.43-0.54-0.55
		c-1.03-0.91-1.73-1.53-2.28-1.84l0.01-0.02c-2.03-1.12-3.91-1.08-4.91,0.09c-0.66,0.8-0.75,1.91-0.3,3.12
		c-4.05,3.43-8.16,7-11.23,11.42c-0.94-1.06-1.8-2.13-2.57-3.23l-1.77-2.53c-0.44-0.62-1.13-0.99-1.88-1.04
		c-0.77-0.04-1.49,0.28-2,0.87l-4.91,5.78c-0.49,0.6-0.69,1.37-0.52,2.12c0.17,0.75,0.66,1.36,1.34,1.69l2.78,1.33
		c0.95,0.46,1.88,0.96,2.77,1.49L83.3,59.42c-2.95,3.47-5.83,7.11-8.58,10.86c-0.57,0.77-1.13,1.54-1.69,2.32L68.54,78.9z"/>
	<polygon points="149.26,33.13 74.62,93.56 74.88,90.44 48.6,115.88 59.23,110.32 73.88,102.67 74.31,97.39 	"/>
</g>
</svg>
