<?xml version="1.0" encoding="utf-8"?>
<!-- Generator: Adobe Illustrator 24.0.1, SVG Export Plug-In . SVG Version: 6.00 Build 0)  -->
<svg version="1.1" id="Layer_1" xmlns="http://www.w3.org/2000/svg" xmlns:xlink="http://www.w3.org/1999/xlink" x="0px" y="0px"
	 viewBox="0 0 172.78 172.78" style="enable-background:new 0 0 172.78 172.78;" xml:space="preserve">
<g>
	<path d="M143.1,51.8l-36.68,14.57l14.57-36.68L91.3,0L71.06,65.94L0,91.48l14.74,14.74l-9.83,1.54l-1.36,4.13l-0.97,2.94l5.77,1.88
		l7.7-3.33l1.15,5.04l2.21-7.54l8.94,8.94l30.2-12.09l0.24,0.07l-0.42,2.47l-6.84,1.88l-5.19,5.19l0.34,8.71l-0.03,0.03l0.03,0
		l0,0.03l0.03-0.03l8.71,0.34l5.19-5.19l1.88-6.84l2.47-0.42l0.07,0.24l-12.09,30.21l8.94,8.94l-7.53,2.21l5.04,1.15l-3.33,7.7
		l1.88,5.77l7.07-2.33l1.54-9.83l14.75,14.75l25.42-71.19l66.07-20.12L143.1,51.8z M101.06,71.72l41.31-16.4l10.32,10.32l-5.13,1.46
		l-8.73-1.48l-2.24,4.08l-14.22,1.81l-2.9,3.26l-5.02-0.81l-2.23,2.96l-14.81,2.05L90.78,82l3.02-6.63l2.05-14.81l2.96-2.23
		L98,53.31l3.26-2.9l2.24-17.54l3.64-12.78l10.32,10.32L101.06,71.72z M73.49,68.26L92.71,5.65l12.26,12.26l-3.34,0.75l-2.93,0.66
		l0.93,11.94l-7.75,14.31l0.54,4.75l-2.43,2.43l-1.35,4.81l-6.18,5.82l-5.42,15.99l-3.89,6.49l-9.18,6.95l-5.69,0.23l-5.25,4.16
		l-8.19-2.92l-11.8,1.41l-15.48,9.12L5.47,92.71L73.49,68.26z M29.08,116.32l-7.09-7.09l3.22-0.63l11.67-5.84L42,105.3l7.64-1.44
		l3.24,2.27l0.97,0.28L29.08,116.32z M66.38,118.92l0.28,0.97l2.27,3.24l-1.44,7.64l2.53,5.12l-5.84,11.67l-0.63,3.22l-7.09-7.09
		L66.38,118.92z M104.4,99.17l-24.33,68.14l-12.09-12.09l9.12-15.48l1.41-11.8l-2.92-8.19l4.16-5.25l0.23-5.69l6.95-9.18l6.49-3.89
		l15.99-5.42l5.82-6.18l4.81-1.35l2.43-2.43l4.75,0.53l14.31-7.75l11.94,0.93l1.42-6.27l12.26,12.26L104.4,99.17z"/>
	<polygon points="107.16,33.94 105.68,25.22 103.5,32.86 103.08,36.19 	"/>
</g>
</svg>
