<?xml version="1.0" encoding="utf-8"?>
<!-- Generator: Adobe Illustrator 24.0.1, SVG Export Plug-In . SVG Version: 6.00 Build 0)  -->
<svg version="1.1" id="Layer_1" xmlns="http://www.w3.org/2000/svg" xmlns:xlink="http://www.w3.org/1999/xlink" x="0px" y="0px"
	 viewBox="0 0 152.15 154.92" style="enable-background:new 0 0 152.15 154.92;" xml:space="preserve">
<path d="M142.43,119.84c-2.09-5.43-4.59-11.28-9.19-15.04c-5.6-4.9-12.66-5.4-18.98-7.65c0.63-2.1,1.08-4.26,1.35-6.44
	c3.42-2.28,6.57-5.16,9.28-8.47c2.92-4.59,4.18-9.19,6.68-14.2c2.92-4.59,8.77-5.43,13.78-2.92c-4.59-5.43-10.86-9.19-18.38-10.86
	c-7.78-1.3-12.79,2.69-17.97,7.08c0.83-2.64,1.53-5.3,1.68-8.04l14.41-14.41c1.69,1.14,3.78,1.59,5.82,1.2
	c2.54-0.48,4.68-2.18,5.71-4.56l12.51-28.62L152.15,0l-6.9,3.02l-28.63,12.5c-2.37,1.04-4.08,3.17-4.56,5.71
	c-0.38,2.05,0.05,4.13,1.19,5.82l-10.9,10.9c-1.47-1.3-2.93-2.64-4.2-4.16c-4.59-6.27-0.84-14.2,4.18-18.38
	c-9.61,3.76-16.29,12.95-18.8,22.97c-0.13,0.37-0.26,0.72-0.42,1.07c-1.17-0.46-2.35-0.87-3.53-1.22
	c-2.39-4.65-5.64-8.78-10.25-11.54c-5.85-4.18-12.95-3.76-19.21-7.52c-5.01-3.34-4.59-10.44-2.51-15.04
	c-5.01,5.85-8.35,12.53-8.35,20.05c0.38,5,1.84,8.95,4.68,12.8c-6.86-0.35-14.03,3.51-18.88,8.92c-2.51,2.51-5.85,3.34-9.61,2.92
	c-5.43-1.25-10.44-4.59-12.53-10.02C4.59,48,10.86,54.26,18.8,58.02c3.63,2.18,7.9,2.46,12.26,3.6c-0.65,2.09-1.11,4.23-1.39,6.4
	c-7.16,4.64-12.12,12.25-14.63,20.48c-1.25,2.92-2.51,5.85-5.85,6.68S2.51,96.03,0,93.52c7.1,10.44,22.55,15.04,32.16,7.1
	c1.4-1.09,2.69-2.18,3.97-3.21c0.05,0.09,0.1,0.18,0.15,0.26c-0.94,2.13-1.51,4.43-1.67,6.74l-14.98,14.98
	c-2.99,2.99-2.99,7.86,0,10.85l2.27,2.27c2.99,2.99,7.86,2.99,10.85,0l10.74-10.74c2.45,2.16,4.64,4.4,5.38,8.09
	c0.84,5.85-2.09,10.44-6.27,13.78c10.49-4.03,16.3-13.53,19.7-23.96c1.04,0.4,2.08,0.76,3.13,1.09
	c4.21,9.99,14.44,15.22,25.62,17.02c2.09,0.42,4.18,1.67,5.85,3.34c3.34,4.18,2.92,9.61,0.42,13.78c7.94-7.1,10.86-18.38,7.1-27.98
	c-0.91-2.12-2.31-3.85-3.91-5.42c4.49,0.8,9.09,0.41,13.1-2.1c3.34-2.51,5.01-5.85,8.77-7.94
	C130.32,107.72,138.25,113.15,142.43,119.84z M117.79,18.22l28.63-12.5l-12.51,28.63c-1.37,3.14-5.48,3.92-7.9,1.5l-1.03-1.03
	l-14.54,14.54c-0.05-0.31-0.12-0.63-0.19-0.94c-0.91-3.62-3.16-6.14-5.71-8.49l12.77-12.77l-1.02-1.02
	C113.88,23.7,114.65,19.59,117.79,18.22z M30.67,130.42c-1.83,1.83-4.84,1.83-6.67,0l-2.27-2.27c-1.83-1.83-1.83-4.84,0-6.67
	l13.02-13.02l38.61-38.61c0.94-0.91,2.62-0.85,4.36,0c0.04,0.02,0.08,0.04,0.12,0.06c0.86,0.44,1.73,1.07,2.53,1.87
	c0.8,0.8,1.43,1.67,1.87,2.53c0.02,0.04,0.04,0.08,0.06,0.12c0.86,1.74,0.92,3.43,0,4.36l-41.02,41.02L30.67,130.42z"/>
</svg>
