<?xml version="1.0" encoding="utf-8"?>
<!-- Generator: Adobe Illustrator 24.0.1, SVG Export Plug-In . SVG Version: 6.00 Build 0)  -->
<svg version="1.1" id="Layer_1" xmlns="http://www.w3.org/2000/svg" xmlns:xlink="http://www.w3.org/1999/xlink" x="0px" y="0px"
	 viewBox="0 0 152.15 154.92" style="enable-background:new 0 0 152.15 154.92;" xml:space="preserve">
<style type="text/css">
	.st0{fill:#1D1D1B;}
</style>
<polygon class="st0" points="15.24,59.88 29.93,56.06 32.57,64.71 31.03,73.93 30.96,73.96 31.43,75.89 28.35,78.49 31.88,102.05 
	35.2,109.89 42.98,81.4 34.88,84.09 46.26,70.07 64.94,74.68 63.44,82.03 63.37,82.04 63.05,83.99 63.05,84.01 61.99,89.19 
	62.22,89.02 59.55,105.31 61.2,124.01 79.71,107.77 69.19,109.43 78.05,105.35 89.67,110.35 85.9,120.21 97.77,114.08 96.39,122.1 
	84.05,134.25 45.7,153.17 32.04,144.42 17.36,118.19 11.61,87.04 3.43,95.61 "/>
<g>
	<path class="st0" d="M88.78,95.3l-16.47,3.07l8.65,3.73l11.63,5.01l-3.77,9.86l11.87-6.13l-1.39,8.02l-0.96,5.56l9-12.12l9.9,7.16
		l3.81-9.51l18.69-0.42l8.96,4.78l-5.25-12.13h-0.03h0.03l-3.84-6.92l-0.02,6.65l-0.45-0.03l-3.4-3.66l-0.73,3.37l-1.89-0.13
		l-2.34-1.58l-1.01,1.34l-13.12-0.93l1.36-4.12h0.01l5.63-0.85l1.28-2.41l0,0l2.32,1.24l1.66-3.12h0.01l1.96,1.04l1.4-2.63
		l0.03-0.01l2.64,1.41l1.89-3.55l0,0l0,0l2.77,1.74l0.36-4.73l2.89-2.76l-10.17-0.68l-3.5,3.78l-10.82,1.94l-3.99-4.2l-15.36,7.11
		L88.78,95.3z M137.86,82.58l-6.51,4.99l2.27-4.28L137.86,82.58z M103.7,95.98l7.69-7.18l4.13,3.39L103.7,95.98z"/>
	<path class="st0" d="M11.47,58.36l6.67-1.73l14.69-3.81l2.64,8.65l0.44,1.45l5.61-12.13l5.3,9.94l-9.03,3.3l11.37,2.81l18.69,4.61
		l-1.5,7.35l-0.4,1.96v0.02l-1.06,5.18l0.23-0.17v-0.01l14.79-11.04l-0.12,19.34l9.65-18.85l15.35,7.64l3.08-14.04l25.76-4.9
		l13.49,4.55l-10.05-15.56l0,0l-6.9-8.69l1.5,9.2l-0.64,0.06l-5.54-4.28l-0.24,4.82l-2.66,0.25l-3.58-1.64l-1.08,2.08l-18.35,1.74
		l0.93-6l0.01-0.01l7.59-2.48l1.22-3.63l0,0l3.49,1.18l1.58-4.69h0.01l2.95,0.99l1.34-3.97l0.04-0.03l3.98,1.34l1.8-5.35h0.01l0,0
		l4.23,1.77l-0.59-6.63l0,0l3.36-4.48l-14.23,1.41l-3.97,6.03L98.8,37.09l-6.5-4.9L72.69,45.56l-12.81,10.4l-11.94,4.35l-0.29-12.45
		l12.22-0.43l-2.83-9.85l14.49-11.8l10.01-1.73L69.95,17.7l-0.01,0.01l0.01-0.01l-7.28-3.11l4.07,5.26l-0.38,0.25l-4.93-0.8
		l1.49,3.11l-1.58,1.06l-2.81,0.19l0.03,1.67l-10.92,7.32l-1.45-4.08l0,0l3.92-4.13l-0.47-2.69l0,0l2.59-0.45l-0.6-3.48l2.19-0.38
		l-0.51-2.95l0.01-0.02l2.96-0.51l-0.69-3.97l3.26-0.33L56.23,5.7l0,0l0.59-3.95l-8.45,5.72l-0.44,5.12l-7.35,8.19l-5.74-0.87
		l-7.76,15.04l-4.5,10.88L11.47,58.36z M124.85,27.05l-7.86,8.4l2.16-6.43L124.85,27.05z M80.69,53.46l8.98-11.7l6.48,3.74
		L80.69,53.46z M53.51,5.66l-2.09,7.93L50.6,8.82L53.51,5.66z M34.77,37.2l1.66-10.39l5.34,0.14L34.77,37.2z"/>
</g>
</svg>
