<?xml version="1.0" encoding="utf-8"?>
<!-- Generator: Adobe Illustrator 24.0.1, SVG Export Plug-In . SVG Version: 6.00 Build 0)  -->
<svg version="1.1" id="Layer_1" xmlns="http://www.w3.org/2000/svg" xmlns:xlink="http://www.w3.org/1999/xlink" x="0px" y="0px"
	 viewBox="0 0 167.49 152.24" style="enable-background:new 0 0 167.49 152.24;" xml:space="preserve">
<path d="M93.48,133.06c1.31-0.57,2.93,0.21,3.61,1.76c0.35,0.8,0.38,1.65,0.15,2.36l5.73,1.53l7.1,1.89l3.97-11.18
	c-1.06-0.02-2.13-0.76-2.65-1.95c-0.68-1.54-0.17-3.27,1.14-3.84c1.31-0.58,2.93,0.2,3.61,1.75c0.54,1.22,0.33,2.55-0.42,3.35
	l11.13,4.49l4.21-11.25c-1.09,0.03-2.22-0.72-2.75-1.94c-0.69-1.55-0.17-3.27,1.14-3.85c1.31-0.57,2.93,0.21,3.61,1.76
	c0.51,1.18,0.33,2.47-0.36,3.27l10.93,4.62l2.31-4.4l3.84-7.37c-0.68-0.3-1.29-0.9-1.64-1.7c-0.69-1.54-0.18-3.27,1.13-3.85
	c1.31-0.57,2.93,0.21,3.61,1.76c0.69,1.54,0.17,3.27-1.13,3.85c-0.22,0.1-0.46,0.15-0.69,0.18l2.99,17.4c0,0-0.06,0.1-0.18,0.3
	c-0.92,1.46-5.68,8.04-18.82,13.07c-13.26,5.09-24.92,6.8-27.26,7.11c-0.28,0.04-0.43,0.06-0.43,0.06l-10.81-13.96
	c-0.18,0.16-0.38,0.29-0.6,0.38c-1.31,0.58-2.93-0.2-3.61-1.75C91.67,135.36,92.18,133.64,93.48,133.06z"/>
<path d="M0,52.54l9.15,9.16l9.62,10.42l9.95,4.55l13.77,4.21l18.93,4.08l12.01-4.83l9.97-4.07l14.18,3.08l-5.72,1.7l3.45,4.36
	l-13.37,6.47l-10.96,13.89l13.27,6.19l5.95-7.37l5.67-4.58l0.76,21.14l5.02,13.99l6.37,1.7l1.99-5.61c-0.66-0.62-1.21-1.38-1.6-2.26
	c-0.63-1.46-0.74-3.07-0.31-4.53c0.48-1.64,1.63-2.97,3.13-3.62c1.51-0.67,3.26-0.62,4.8,0.13c1.38,0.67,2.49,1.85,3.14,3.31
	c0.39,0.89,0.58,1.82,0.58,2.74l5.23,2.11l1.98-5.29c-0.68-0.62-1.24-1.39-1.63-2.27c-1.41-3.2-0.15-6.86,2.83-8.18
	c2.95-1.28,6.5,0.26,7.92,3.46c0.38,0.87,0.57,1.79,0.57,2.69l5.49,2.32l1.63-3.12l-4.05-5.39l-16.13-5.8v-0.01l10.78-5.11
	l24.98-4.41l1.32-4.34l-7.65-0.43l14.47-5.84l-0.85-8.21l-7.61-4.67l-11.04,5.24l-31.82-2.27l-3.49-0.25l5.62-8.75l-2.31-4.87
	l-0.16-9.64l8.29-3.99l6.93-12.68L127,19.4l0.87,18.42l-6.48,10.06l-9.34,3.08l-6.71-4.64l-1.82-7.95l2.8-14.24l-3.77-14.62L94.72,0
	l6.66,16.26l1.15,9.57l-4.05,6.99l-7.44-4.15l-4.32-11.56l-9.16-9.83l-9.34-3.3l12.95,10.84l5.3,9.46l-0.04,7.12l-3.81,2.55
	l-12.84-8.57L56.06,21.2L74.87,33l5.61,5.4l-4.17,0.96l-11.84-4.19l11.96,8.35l11.14,2.05l7.15,1.08l11.38,7.65l4.19,8.25l-2.2,6.96
	l-1.25,2l-2.75,4.39l1.15-5.81l-3.28-8.83l-10.91-7.07l7.74,9.68l2.58,6.93l-1,3.6l-12.98-4.02l-7.13,1.1l-3.97-16.46L66.12,44.09
	l-9.63-4.67L67.11,51.6l6.23,13.83l0.46,7.01l-11.07,3.04l-9-4.9l-2.46-6.62l0.22-4l0.48-8.58l-5.99,2.23l-2.19-5.88l-2.1-11.42
	L30.53,24.67l8.04,13.88l1.82,12.6l3.28,11.7l-0.52,3.42l-4.1,1.52L34,58.07L20.09,30.35l5.73,24.07l5.28,14.19l-2.68,2.43
	l-10.49-6.98L5.28,54.17L0,52.54z M125.26,86.73c0,0-0.77,1.9-2.23,3.35c0.19-0.52,0.24-1.08,0.11-1.66
	c-0.19-0.84-0.73-1.5-1.44-1.88c0.05,0.08,0.09,0.18,0.12,0.3c0.12,0.54-0.21,1.08-0.76,1.21c-0.55,0.13-1.09-0.22-1.21-0.76
	c-0.1-0.44,0.09-0.86,0.45-1.09c-0.19,0-0.39,0.04-0.58,0.08c-1.54,0.36-2.51,1.89-2.16,3.42c0.2,0.91,0.82,1.61,1.6,1.97
	c-2.63-0.2-5.06-2.38-5.06-2.38s1.68-4.15,4.76-4.86C121.94,83.72,125.26,86.73,125.26,86.73z"/>
</svg>
