<?xml version="1.0" encoding="utf-8"?>
<!-- Generator: Adobe Illustrator 24.0.1, SVG Export Plug-In . SVG Version: 6.00 Build 0)  -->
<svg version="1.1" id="Layer_1" xmlns="http://www.w3.org/2000/svg" xmlns:xlink="http://www.w3.org/1999/xlink" x="0px" y="0px"
	 viewBox="0 0 158.67 83.45" style="enable-background:new 0 0 158.67 83.45;" xml:space="preserve">
<style type="text/css">
	.st0{fill:#1D1D1B;}
</style>
<path class="st0" d="M149.25,63.19l-2.48,0.28l-2.94-1.18l-2.49,2.99l-11.49,1.32l-2.9-2.69l-16.96-4.14l0,0h0l11.87-4.02l7.26-5.57
	l6.76-9.38l4.26-10.33l1.29-10.36l6.47-7.8l3.19-2.94l0,0l4.3-1l3.26-0.34l-2.72-2.17l-6.45-1.14l0,0l-8.21-3.84L133.92,0
	l-8.37,4.22l-4.59,7.02l-5.82,4.8l-19.81,8.21l-14.35,3.6l-11.77,6.46l-35.89-1.56L7.58,31.44l-4.73,3.7l15.63,1.76L0,37.89
	l3.49,4.04l59.32,1.93l-10.62,0.82l17.87,4.98l21.07,6.24l1.43,4.65l12.4,7.84l0.87,2.22l-23.29,4.36l-6.54,0.29l-3.48,4.35
	l1.47,3.6L88.05,81l4.51,1.37l2.81-1.7l12.66-2.19l-0.43,2.35l2.82-2.76l0.15,3.5l-2.69,1.87l3.84-0.17l0.38-5.49l7.7-1.33
	l6.42-0.84l-0.26,1.79l-3.16,3.63l2.75-0.99l3.78-4.83l8.71-1.14l3.66-0.16l3.55-2.78l1.97,0C147.93,68.49,148.6,65.85,149.25,63.19
	z M138.08,4.76c1.16-0.05,2.13,0.64,2.17,1.55c0.04,0.9-0.87,1.67-2.02,1.72c-1.16,0.05-2.12-0.64-2.16-1.54
	C136.02,5.58,136.92,4.81,138.08,4.76z M119.32,68.07l-8.16,1.53l-3.14-3.1l-3.19-1.08l-5.78-5.79l6.26,0.08l4.44,2.34l13.96,3.58
	L119.32,68.07z"/>
</svg>
