<?xml version="1.0" encoding="utf-8"?>
<!-- Generator: Adobe Illustrator 24.0.1, SVG Export Plug-In . SVG Version: 6.00 Build 0)  -->
<svg version="1.1" xmlns="http://www.w3.org/2000/svg" xmlns:xlink="http://www.w3.org/1999/xlink" x="0px" y="0px"
	 viewBox="0 0 484.33 373.12" style="enable-background:new 0 0 484.33 373.12;" xml:space="preserve">
<style type="text/css">
	.st0{fill:#E0D0B6;}
	.st1{fill:#DDB683;}
	.st2{fill:#5C4523;}
</style>
<g id="Layer_1">
	<g>
		<path class="st0" d="M121.75,173.61c13.3,11.51,43.74,14.02,59.99,4.24v-29.66c-0.19-3.32,3.97-5.03,8.68-6.33h-27.48
			c4.57,1.55,8.4,2.21,8.68,6.33v26.55c-30.16,16.99-66.91-22.1-51.5-53.26c8.54-23.7,52.92-28.89,59.64-0.98l2.89-19
			C91.99,80.51,99.29,157.6,121.75,173.61z"/>
		<path class="st0" d="M222.29,171.57h19.42c-9.24,0.02-20.8-41.38-30.49-61.45c-4.75,12.57-12.56,33.28-20.34,53.9
			c-0.43,1.3-1.73,6.5-8.5,7.55h18.01c-1.16-0.15-4.72-1.76-4.71-3.9l6.48-19.41h16.95l7.9,20.37
			C224.8,169.25,223.23,170.23,222.29,171.57z M203.12,144.51l7.13-19.29l0.52-1.42c0.21,0.58,7.13,19.99,7.41,20.77L203.12,144.51z
			"/>
		<path class="st0" d="M249.73,165.24c-0.46,2.5-1.79,4.2-5.16,5.64H262c-4.53-0.82-6.03-7.95-5.04-8.73
			c0.76-5.64,4.06-29.99,4.08-30.07l20.26,38.08l0.21,0.21h0.03v0.03l0.06-0.06l20.4-36.85l7.05,30.49
			c0.22,3.54-0.99,5.83-5.16,7.59h17.4c-4.97-1.55-5.58-7.02-5.48-7.54c-1.62-9.77-8.82-53.15-8.83-53.2l-25.48,49.24l-24.73-49.96
			L249.73,165.24z"/>
		<path class="st0" d="M330.96,115.37c-1.13,40.85,3.91,53.27-5.16,56.2h32.77l1.23-10.59c-4.42,9.23-14.98,10.79-21.64,2.94v-22.81
			c5.82,0.32,16.91-2.11,17.46,6.51l1.5-12.03c-3.04,3.21-14.97,1.73-18.96,2.04v-22.99c6.02,0.5,17.62-2.66,18.09,6.69l2.31-11.22
			l-2.31,1.08h-31.54C327.97,112.14,330.06,113.53,330.96,115.37z"/>
		<path class="st0" d="M140.34,204.04l-3.15-1.47l3.15,15.32c0.79-13.11,16.75-8.31,24.58-9.14c-0.9,67.22,4.3,73.4-7.05,77.73
			h24.05c-9.04-4.03-6.91-7.76-7.13-19.35c-0.01-23.91,0.05-34.55,0.08-58.37c8.99,0.65,23.79-3.58,24.62,9.14l3.16-15.32
			l-3.16,1.47H140.34z"/>
		<path class="st0" d="M208.76,224.15c0.86-0.62,1.7-1.07,2.52-1.35h-17.61c8.38,2.85,4.36,13.06,5.22,29.94
			c-1.1,19.37,3.54,28.14-5.22,31.51h17.61c-8.48-3.36-4.28-11.04-5.22-26.05C206.84,239.29,203.8,227.39,208.76,224.15z"/>
		<path class="st0" d="M222.47,227.06c-1.15,41.38,3.98,54.28-5.25,57.19h33.37l1.26-10.77c-4.51,9.38-15.3,10.96-22.03,2.97v-49.57
			l-0.21,51.22c0-2.9,0.03-19.91,0.09-51.04c0.96-1.6,3.03-3.27,6.36-4.26h-19.92C219.46,223.76,221.57,225.18,222.47,227.06z"/>
		<path class="st0" d="M278.89,281.76c-3.66-0.02-7.96-1.76-10.77-5.16v-22.81c5.82,0.32,16.91-2.11,17.46,6.51l1.5-12.03
			c-3.04,3.21-14.97,1.73-18.96,2.04v-22.99c6.02,0.5,17.62-2.66,18.09,6.69l2.31-11.22l-2.31,1.08h-31.54
			c3.26,0.94,5.34,2.33,6.24,4.17c-1.13,40.85,3.91,53.27-5.16,56.2h32.77l1.23-10.59C288.22,277.02,283.22,282.05,278.89,281.76z"
			/>
		<path class="st0" d="M324.41,266.49c0.99-11.94-21.55-21.03-23.49-31.7c-2.01-12.2,19.75-12.21,19.71,0.97l1.89-10.62
			c-12.69-7.26-34.75,1.71-26.09,17.67c4.45,8.16,17.28,14.71,21.18,23.6c6.38,15.75-23.44,19.59-22.97,2.57
			c-0.96,4.32-1.27,7.94-0.93,10.86C302.66,290.47,325.16,280.33,324.41,266.49z"/>
		<path class="st0" d="M237.27,185.99c-12.87-11.32-28.03,5.54-18.27,17.65C232.24,216.33,249.47,198.1,237.27,185.99z
			 M226.37,206.13c-9.28-2.19-9.98-19.43,0-22.02V206.13z M227.95,206.48c-0.26-0.04-0.54-0.09-0.83-0.15v-22.4
			c0.28-0.06,0.55-0.11,0.83-0.14V206.48z M230.21,206.47c-0.35,0.04-0.69,0.07-1,0.07v-22.76c0.33,0.04,0.66,0.1,1,0.17V206.47z
			 M235.66,203.72c-1.22,1.34-2.78,2.21-4.69,2.61v-22.17C238.53,185.91,240.4,198.16,235.66,203.72z"/>
		<path class="st0" d="M256.32,197.89l0.62-4.98c-0.86,1.2-6.47,0.79-7.84,0.84v-9.5c2.84,0.54,6.67-1.68,7.48,2.77l0.96-4.64
			l-0.96,0.45h-13.04c1.35,0.39,2.21,0.96,2.58,1.72c0.01,4.81,0.02,9.19,0.02,13.15h-0.01c-0.71,3.15,1.9,8.42-2.16,10.09h7.27
			c-3.32-0.11-1.89-10.43-2.15-12.59C251.71,195.47,255.62,194.07,256.32,197.89z"/>
		<path class="st0" d="M367.34,206.77l3.3-16.01l-3.3,1.54H268.8v4.92c0.01,0,35.71,0,59.26,0
			C340.89,197.76,367.73,194.38,367.34,206.77z"/>
	</g>
	<g>
		<path class="st1" d="M196.06,89.3c8.44,0.69,17.87-0.09,11.92-9.83C188.39,73.13,188.8,88.55,196.06,89.3z"/>
		<path class="st1" d="M223.96,114.77c8.44,0.69,17.87-0.09,11.92-9.83C216.3,98.6,216.7,114.01,223.96,114.77z"/>
		<path class="st1" d="M310.12,89.3c8.44,0.69,17.87-0.09,11.92-9.83C302.45,73.13,302.85,88.55,310.12,89.3z"/>
		<path class="st1" d="M279.8,103.98c-8.44-0.69-17.87,0.09-11.92,9.83C287.47,120.15,287.07,104.73,279.8,103.98z"/>
		<path class="st1" d="M158.13,83.91c8.44,0.69,17.87-0.09,11.92-9.83C150.46,67.74,150.86,83.15,158.13,83.91z"/>
		<path class="st1" d="M288.77,302.65c-8.44-0.69-17.87,0.09-11.92,9.83C296.44,318.83,296.03,303.41,288.77,302.65z"/>
		<path class="st1" d="M239.16,297.26c-8.44-0.69-17.87,0.09-11.92,9.83C246.83,313.43,246.42,298.01,239.16,297.26z"/>
		<path class="st1" d="M148.54,242.8c-8.44-0.69-17.87,0.09-11.92,9.83C156.2,258.98,155.8,243.56,148.54,242.8z"/>
		<path class="st1" d="M126.48,218.4c-8.44-0.69-17.87,0.09-11.92,9.83C134.15,234.57,133.75,219.15,126.48,218.4z"/>
		<path class="st1" d="M363.35,237.41c-8.44-0.69-17.87,0.09-11.92,9.83C371.02,253.58,370.62,238.16,363.35,237.41z"/>
	</g>
	<path class="st2" d="M475.16,203.28l-9.7-9.69c26.19-21.75,16.89-36.35,18.6-63.19c-33.94,0.28-42.28-4.15-59.71,14.21
		c-1.5-6.57-3.34-13.04-5.55-19.39h19.24c-10.42-19.28-26.51-36.69-46.88-51.29c-3.67-4.8-7.57-9.47-11.74-13.97
		C344.15,21.85,294.23,0,242.46,0h-0.43c-46.97,0-91.86,17.67-126.44,49.79c-7.69,7.15-14.71,14.86-21.02,23.03
		c-21.11,14.83-37.76,32.63-48.44,52.4h20.02c-2.27,6.53-4.19,13.18-5.72,19.95C40.4,123.44,25.33,131.82,0.1,130.4
		c0.54,36.74-4.4,43.11,18.6,63.19c-8.59,8.09-19.31,18.13-18.6,31.17v32.3c36.83-0.41,42.96,4.49,63.04-18.1
		c2.4,8.28,5.39,16.37,8.94,24.23H52.65c11.19,15.72,26.73,29.88,45.58,41.85c1.95,2.36,3.96,4.69,6.04,6.97
		c34.99,38.42,84.8,60.69,136.64,61.1c0.71,0.01,1.42,0.01,2.13,0.01c46.97,0,91.81-17.75,126.46-50.1
		c6.28-5.86,12.1-12.09,17.46-18.63c18.39-11.83,33.56-25.76,44.55-41.2H412.6c3.49-7.7,6.44-15.63,8.83-23.74
		c21.53,25.09,35.88,16.03,62.64,17.61C483.15,242.2,488.27,214.2,475.16,203.28z M465.49,160.76c1.39,7.68-8.9,14.19-13.03,19
		l-17.36-17.36l0,0C445.44,149.56,460.26,141.85,465.49,160.76z M30.94,149.41c7.04-0.74,13.6,9.22,18.12,13l0,0l-17.36,17.36
		C17.9,169.12,11.46,153.38,30.94,149.41z M22.07,217.05l10.09-10.09l17.41,17.29C25.95,254.13,11.92,226.59,22.07,217.05z
		 M45.91,193.88l9.94-9.94c-0.11,6.91,0.13,13.78,0.76,20.56L45.91,193.88z M243.7,352.91c-0.58,0.01-1.17,0.01-1.75,0.01
		c-43.07,0-83.87-16.55-115.04-46.71c-31.14-30.14-49.15-70.16-50.72-112.73c-1.95-45.66,14.4-88.96,46.04-121.93
		c31.33-32.64,75.02-51.35,119.91-51.35h0.67c86.48,0,159.13,67.37,165.47,153.57c3.57,46.54-11.76,91-43.18,125.17
		C333.9,332.89,289.66,352.56,243.7,352.91z M428.41,200.95c0.42-5.48,0.6-10.94,0.56-16.36l9.29,9.29l-10.09,10.03
		C428.25,202.92,428.34,201.94,428.41,200.95z M462.09,234.15c-11.73,10.65-20.24-3.25-27.5-9.9l17.41-17.29
		C460.06,214.86,471.67,223.71,462.09,234.15z"/>
</g>
<g id="left-border">
</g>
<g id="right-border">
</g>
</svg>
